<svg width="76" height="54" viewBox="0 0 76 54" fill="none" xmlns="http://www.w3.org/2000/svg">
<path d="M25.0819 54C21.5871 54 18.3108 53.3053 15.253 51.9159C12.2194 50.5017 9.56193 48.5541 7.28066 46.0731C4.99938 43.5672 3.21562 40.6892 1.92937 37.439C0.643124 34.164 0 30.6657 0 26.9442C0 23.1482 0.667393 19.6127 2.00218 16.3377C3.33697 13.0627 5.16927 10.2095 7.49908 7.77808C9.82889 5.32185 12.4985 3.41144 15.5078 2.04686C18.5414 0.682288 21.757 0 25.1547 0C29.062 0 32.7508 0.930393 36.2213 2.79118C39.716 4.65196 42.6768 7.29428 45.1037 10.7181L40.5533 13.2488C38.6117 10.6437 36.2698 8.64645 33.5274 7.25707C30.8093 5.86768 28.0063 5.17299 25.1183 5.17299C22.3759 5.17299 19.7913 5.74363 17.3644 6.88491C14.9617 8.00138 12.8382 9.56444 10.9938 11.5741C9.14936 13.5837 7.70536 15.9035 6.6618 18.5334C5.61824 21.1633 5.09646 23.9917 5.09646 27.0186C5.09646 30.0207 5.61824 32.8367 6.6618 35.4666C7.70536 38.0965 9.13722 40.4163 10.9574 42.4259C12.8018 44.4108 14.9375 45.9738 17.3644 47.1151C19.7913 48.2316 22.388 48.7898 25.1547 48.7898C27.4359 48.7898 29.5959 48.3928 31.6345 47.5989C33.6973 46.7802 35.5781 45.6389 37.277 44.1751C38.9758 42.7112 40.4076 40.9993 41.5725 39.0393C42.7617 37.0793 43.6233 34.9456 44.1572 32.6382H30.3967V27.9118H50.0909C50.0181 31.5093 49.3143 34.8835 47.9795 38.0345C46.6447 41.1854 44.8246 43.9642 42.519 46.3708C40.2378 48.7526 37.6046 50.6258 34.6195 51.9904C31.6587 53.3301 28.4795 54 25.0819 54Z" fill="#322F40"/>
<path d="M75.7421 53.1148H69.0674L52.1408 29.6488L49.2275 25.545L69.2518 0.885254H76.0003L55.5335 25.545L75.7421 53.1148Z" fill="#322F40"/>
</svg>
