<svg width="496" height="101" viewBox="0 0 496 101" fill="none" xmlns="http://www.w3.org/2000/svg">
<g clip-path="url(#clip0_273_1327)">
<path d="M496 92.2606C495.564 94.7262 494.475 96.6841 492.297 98.0619C489.683 99.6573 486.27 99.5848 483.802 97.7719C481.26 95.8864 480.098 92.7682 480.825 89.7226C481.551 86.7494 484.092 84.4289 487.142 83.9938C491.426 83.4136 495.274 86.2418 495.927 90.5202C495.927 90.6653 496 90.8103 496 90.9553V92.2606ZM494.475 91.608C494.475 88.1272 491.789 85.4441 488.376 85.3716C484.891 85.3716 482.059 88.1272 481.986 91.463C481.986 94.7987 484.745 97.6268 488.158 97.6993C491.643 97.8444 494.475 95.0888 494.475 91.608Z" fill="#93013C"/>
<path d="M167.439 79.2079C168.601 77.9026 169.69 76.5248 170.852 75.2195C175.063 70.3609 179.565 65.7198 184.938 62.094C187.988 59.991 191.255 58.3957 194.958 57.8155C196.556 57.598 198.153 57.598 199.75 58.0331C203.599 59.0483 205.777 63.0367 204.615 67.0251C204.034 68.9831 203.018 70.7234 201.929 72.3913C199.024 76.8148 195.539 80.8032 192.272 84.8641C190.602 87.0396 188.859 89.1426 187.479 91.5356C186.826 92.7684 186.172 94.0012 186.172 95.4515C186.245 97.482 187.261 98.4972 189.222 98.5697C191.473 98.6422 193.579 98.0621 195.612 97.1194C199.315 95.3065 202.437 92.6959 205.414 89.8678C205.704 89.6502 205.777 89.2876 205.85 88.9976C206.285 85.0817 207.883 81.5284 209.988 78.2651C215.071 70.3609 221.679 64.197 230.101 60.0635C233.369 58.4682 236.782 57.5255 240.412 57.453C244.478 57.3804 247.383 59.0483 249.053 62.8192C249.271 63.2543 249.343 63.9069 249.779 63.9794C250.287 63.9794 250.36 63.3268 250.65 62.9642C260.452 47.3007 270.255 31.6372 279.912 15.9736C281.074 14.0882 282.236 13.073 284.559 13.4356C285.939 13.6531 287.391 13.4356 288.77 13.5081C289.061 13.5081 289.424 13.363 289.569 13.6531C289.714 13.9432 289.424 14.1607 289.279 14.3783C286.374 18.8743 283.543 23.4428 280.566 27.8663C272.215 40.4841 263.793 53.0295 255.442 65.5748C251.086 72.1738 246.729 78.9178 242.953 85.8794C241.429 88.635 239.976 91.3906 239.25 94.4363C239.032 95.4515 239.105 96.4667 239.541 97.4095C239.976 98.2796 240.63 98.6422 241.574 98.7148C243.171 98.7873 244.551 98.2797 246.003 97.627C249.488 95.9591 252.32 93.5661 255.152 91.028C262.921 84.0665 269.384 76.0171 274.902 67.1702C275.047 66.8801 275.192 66.445 275.701 66.5175C276.354 66.6625 276.499 67.0251 276.064 67.6778C273.668 71.7387 270.908 75.582 267.931 79.2804C263.938 84.3565 259.581 89.1426 254.716 93.3485C252.03 95.6691 249.198 97.8446 245.858 99.2224C243.607 100.165 241.356 100.528 238.887 100.02C234.894 99.1498 233.006 96.3217 233.732 92.3333C234.095 90.4479 234.748 88.78 235.62 87.1121C235.838 86.6045 236.128 86.0969 236.273 85.5168C235.62 86.2419 234.966 86.9671 234.313 87.7648C231.045 91.3906 227.705 94.9439 223.567 97.5545C221.243 99.0048 218.774 100.02 216.015 100.31C211.005 100.89 206.648 97.5545 205.922 92.5509C205.85 92.2608 205.922 91.8982 205.704 91.8257C205.414 91.6807 205.196 92.0433 205.051 92.2608C202.51 94.5813 199.896 96.6843 196.919 98.2796C194.232 99.73 191.473 100.673 188.351 100.31C182.542 99.5849 179.855 95.0889 181.816 89.5777C182.905 86.4595 184.865 83.8489 186.898 81.3108C189.948 77.4675 193.361 73.9142 196.338 69.9983C197.863 67.9678 199.315 65.8649 199.823 63.3268C200.331 61.0063 199.17 59.5559 196.846 59.4109C194.813 59.2659 192.998 59.9185 191.255 60.7162C187.116 62.6741 183.558 65.5748 180.291 68.693C171.505 77.0324 164.026 86.387 157.709 96.7568C157.201 97.627 156.693 98.4972 156.257 99.4399C156.039 99.875 155.749 100.093 155.168 100.093C153.135 100.093 151.102 100.093 149.069 100.093C148.27 100.093 148.197 99.9475 148.633 99.2224C149.867 97.1919 151.174 95.1615 152.481 92.986C151.029 94.1462 149.722 95.1615 148.342 96.1767C145.946 97.9171 143.478 99.2949 140.573 99.9475C139.339 100.238 138.177 100.238 136.943 100.02C134.111 99.4399 132.223 96.9743 132.15 93.7111C132.078 91.6807 132.731 89.7952 133.385 87.9823C133.457 87.6923 133.675 87.4747 133.675 87.1847C133.167 87.6198 132.659 88.0548 132.15 88.5625C128.738 92.0433 125.107 95.3065 120.823 97.772C118.863 98.9323 116.757 99.8025 114.433 100.093C111.239 100.455 108.479 99.0048 107.1 96.1042C105.575 92.8409 105.648 89.5052 106.519 86.0969C107.463 82.4711 109.133 79.1353 111.166 76.0171C111.384 75.7271 111.529 75.437 111.747 75.1469C111.384 75.0019 111.093 75.2195 110.803 75.292C108.189 76.0171 105.575 76.0171 103.034 74.7118C100.492 73.4066 99.3305 71.086 98.8949 68.4029C98.5318 66.1549 98.8949 63.9794 99.9114 61.8765C99.984 61.8039 99.984 61.7314 99.984 61.6589C99.984 61.5864 99.984 61.5864 99.984 61.5139C99.621 61.4414 99.4758 61.7314 99.2579 61.8765C95.1918 64.7771 91.4886 68.0403 87.9307 71.5211C83.8646 75.437 79.9436 79.4979 76.3131 83.7764C72.3196 88.4899 69.4152 93.7836 66.9464 99.3674C66.656 99.9475 66.3655 100.238 65.712 100.238C63.679 100.238 61.6459 100.238 59.6128 100.238C58.6689 100.238 58.5962 100.093 59.1045 99.3674C67.3821 85.9519 75.224 72.2463 83.792 58.9758C84.3729 58.1056 84.9537 57.743 85.9703 57.8155C87.5677 57.8881 89.2377 57.8155 90.9078 57.8155C91.1982 57.8155 91.7065 57.6705 91.8517 58.0331C91.9969 58.3957 91.6339 58.6132 91.4886 58.9033C88.5116 63.4718 85.6072 68.0403 82.6302 72.6089C81.178 74.8569 79.7258 77.0324 78.3462 79.2804C78.201 79.4254 78.0558 79.643 78.0558 79.933C79.4354 78.4102 80.815 76.8873 82.2672 75.3645C87.9307 69.5632 93.9574 64.1245 100.565 59.4834C100.855 59.2659 101.073 59.0483 101.291 58.7583C101.727 57.9606 102.453 57.598 103.324 57.598C104.994 57.598 106.664 57.5255 108.334 57.743C108.552 57.743 108.77 57.6705 108.842 57.8881C108.915 58.1056 108.697 58.2506 108.552 58.3957C107.463 59.6284 106.374 60.7887 105.575 62.239C104.195 64.7771 103.615 67.3877 104.268 70.2158C104.922 73.1165 107.172 74.5668 110.149 74.0592C111.093 73.9142 112.037 73.6241 112.909 73.189C113.417 72.9715 113.853 72.6089 114.216 72.1738C118.427 67.0251 123.292 62.6741 129.319 59.701C133.239 57.8155 137.306 56.9453 141.662 57.9606C144.857 58.7583 146.963 60.5712 147.834 63.7619C147.834 63.8344 147.907 63.9069 147.907 63.9794C147.907 64.0519 147.979 64.0519 148.052 64.1245C148.415 64.0519 148.488 63.6894 148.633 63.3993C149.649 61.7314 150.593 60.1361 151.537 58.4682C151.828 57.8881 152.263 57.6705 152.917 57.6705C154.877 57.6705 156.838 57.6705 158.798 57.6705C159.089 57.6705 159.524 57.5255 159.67 57.8881C159.815 58.1781 159.452 58.4682 159.307 58.6857C154.369 65.7198 149.359 72.6814 144.712 79.8605C142.316 83.5588 139.992 87.2572 138.25 91.3181C137.669 92.6959 137.088 94.0737 137.16 95.5965C137.233 97.4095 138.104 98.4247 139.992 98.4972C141.299 98.5697 142.461 98.1346 143.623 97.5545C146.672 96.1042 149.286 94.0737 151.828 91.8982C152.336 91.4631 152.844 90.9555 153.352 90.5204C156.184 88.2724 157.854 85.1542 159.815 82.181C164.317 75.3645 168.891 68.548 173.248 61.6589C173.901 60.5712 174.627 59.4834 175.281 58.3232C175.571 57.743 176.007 57.5255 176.66 57.5255C178.621 57.598 180.581 57.5255 182.542 57.598C182.832 57.598 183.268 57.453 183.413 57.8155C183.558 58.1056 183.195 58.3232 183.05 58.5407C178.693 64.4145 174.337 70.3609 169.98 76.2347C169.254 77.1774 168.601 78.1926 167.875 79.1353C167.366 79.1353 167.439 79.2079 167.439 79.2079ZM246.221 65.1397C246.221 61.1513 244.115 59.0483 240.122 58.9758C237.362 58.9758 235.039 60.0635 232.861 61.4414C228.504 64.197 224.946 67.8953 221.824 71.9562C218.411 76.3797 215.507 81.0933 213.982 86.532C213.328 88.925 213.111 91.3181 213.692 93.7111C214.345 96.2492 216.233 97.4095 218.774 96.9018C220.372 96.6118 221.824 95.8866 223.203 95.0889C226.253 93.276 228.94 91.028 231.481 88.5625C236.128 84.0665 240.267 79.0628 243.389 73.4066C244.987 70.8685 246.221 68.1854 246.221 65.1397ZM143.695 63.9069C143.695 63.6169 143.695 63.2543 143.695 62.9642C143.623 61.0063 142.751 59.846 140.936 59.3384C140.355 59.1934 139.702 59.0483 139.121 59.0483C136.362 58.8308 133.966 59.846 131.642 61.2238C128.084 63.2543 125.18 66.0099 122.566 69.1281C117.483 75.2195 113.635 81.9635 113.199 90.0853C113.126 91.8982 113.272 93.6386 114.216 95.234C114.942 96.4667 115.958 97.1194 117.41 96.9743C119.153 96.9018 120.605 96.1767 122.058 95.3065C125.615 93.276 128.665 90.5204 131.497 87.5472C135.563 83.2688 138.976 78.4827 141.372 73.1165C142.679 70.2158 143.623 67.1702 143.695 63.9069Z" fill="#93013C"/>
<path d="M58.5965 64.8496C57.6526 65.5747 56.7086 66.2274 55.7647 66.88C51.2629 70.0708 46.3254 72.2462 40.807 72.9714C37.6848 73.4065 34.6351 73.334 31.6581 72.2462C26.0671 70.2883 23.2353 66.0824 22.5092 60.4261C21.7831 54.4072 23.671 49.041 26.5754 43.8924C29.9155 38.0911 34.2721 33.1599 39.2096 28.6639C42.2592 25.8358 45.5267 23.2252 49.0119 20.9047C49.5202 20.5421 49.4476 20.3246 49.1572 19.8895C47.5597 17.3514 46.6884 14.6683 46.5432 11.6951C46.2528 7.6342 47.9954 4.44348 50.8998 1.76038C51.4081 1.32528 51.9163 0.962699 52.4246 0.527601C52.7877 0.237535 53.0781 0.237535 53.4412 0.600117C53.8042 1.03522 53.5864 1.25276 53.2959 1.47031C52.6425 2.05044 51.989 2.63057 51.4081 3.28322C49.2298 5.45871 48.068 8.0693 48.2858 11.1875C48.5037 13.8706 49.0119 16.3362 50.3915 18.6567C50.7546 19.3093 51.1176 19.3818 51.7711 19.0193C58.5965 14.8858 65.7849 11.6951 73.5542 9.73717C78.6369 8.5044 83.7922 7.85175 89.0201 8.14181C91.1258 8.21433 93.2315 8.57691 95.192 9.37459C99.8391 11.26 101.436 14.7408 100.347 19.5994C99.6938 22.5726 97.8786 24.8206 95.4098 26.4884C91.9972 28.8815 88.0762 30.1143 84.01 30.8394C80.8152 31.4196 77.5477 31.7096 74.2077 31.6371C68.0358 31.4921 62.1544 30.4768 56.7812 27.2861C55.2564 26.4159 53.8768 25.4007 52.5698 24.1679C52.0616 23.6603 51.7711 23.7328 51.2629 24.0954C47.1241 27.2861 43.5662 31.1295 40.4439 35.3354C36.7408 40.3391 33.6186 45.6328 31.7307 51.5791C30.2059 55.8576 29.9155 60.3536 31.2225 64.7771C32.3116 68.4754 34.9982 70.5784 38.8465 70.9409C42.2592 71.3035 45.3814 70.5059 48.5037 69.2731C52.5698 67.6052 56.273 65.2847 59.613 62.384C61.4283 60.7887 62.5174 58.7582 63.4614 56.5827C64.4053 54.4072 65.4218 52.3043 66.874 50.4913C68.9797 47.7357 71.8841 46.648 75.2242 46.7205C76.8216 46.793 77.6203 48.0258 77.0395 49.4761C76.5312 50.7089 75.6599 51.7241 74.8612 52.8119C73.6994 54.2622 72.5376 55.7125 71.3033 57.0903C69.488 59.1208 68.3262 61.5863 66.9467 63.9069C63.0257 70.6509 58.7417 77.1048 53.4412 82.9061C48.5763 88.2723 43.2031 92.9134 36.6682 96.1041C32.1664 98.3521 27.3741 99.6574 22.2914 99.9475C18.1526 100.165 14.0865 99.7299 10.3107 98.0621C5.30063 95.814 1.67012 92.3333 0.435747 86.822C-0.217745 84.1389 -0.145135 81.5283 0.944018 78.9903C2.17839 76.2346 4.79236 74.7843 7.62415 75.3644C9.87507 75.7995 11.3273 77.9025 11.1094 80.3681C10.8916 82.6161 9.22158 84.0664 6.89805 84.0664C6.38978 84.0664 5.95412 84.0664 5.44585 83.9214C4.71975 83.7038 4.57453 84.0664 4.50192 84.6465C3.99364 89.6502 6.02673 93.3485 10.3107 95.8141C14.3043 98.1346 18.6609 98.6422 23.1627 98.2071C29.3346 97.5545 34.4173 94.5088 38.9917 90.5929C44.4375 85.8793 48.6489 80.223 52.6425 74.2767C54.5303 71.4486 56.3456 68.5479 58.2334 65.7198C58.3787 65.5022 58.6691 65.2847 58.5965 64.8496ZM76.3134 29.8967C78.5643 29.9692 82.5578 29.3166 86.4062 27.6487C91.4163 25.4007 95.1194 22.0649 95.4825 16.1911C95.6277 14.0156 94.9016 12.2027 92.9411 11.0425C92.0698 10.5349 91.0532 10.1723 90.1093 10.0272C86.5514 9.44711 82.9935 9.44711 79.4356 10.0998C69.7785 11.8401 61.3557 16.1911 53.5864 21.9199C53.0781 22.2825 53.0781 22.5726 53.5138 22.9351C55.0386 24.458 56.7812 25.6908 58.7417 26.6335C63.6792 29.0265 68.9797 29.8242 76.3134 29.8967Z" fill="#93013C"/>
<path d="M447.133 85.0817C445.826 86.4595 444.592 87.8373 443.285 89.1426C439.291 93.131 435.152 96.8294 429.925 99.0049C427.891 99.8025 425.858 100.238 423.607 100.02C419.106 99.5125 417 96.6118 417.871 92.1158C418.38 89.5052 419.541 87.1122 420.848 84.7917C422.809 81.3834 425.06 78.1927 427.383 75.002C427.528 74.7844 427.674 74.5669 427.964 74.1318C426.294 74.8569 424.842 75.3645 423.244 75.5096C418.234 76.0172 414.023 73.4066 413.442 67.8954C413.224 65.7199 413.515 63.6169 414.459 61.659C414.531 61.5139 414.531 61.3689 414.604 61.2239C414.168 61.2239 414.023 61.4414 413.732 61.659C409.303 64.8497 405.31 68.403 401.389 72.2463C397.686 75.7996 394.128 79.498 390.788 83.4138C387.448 87.3297 385.051 91.8983 382.873 96.5393C382.437 97.482 382.002 98.3522 381.639 99.2949C381.421 99.8025 381.131 99.9476 380.622 99.9476C378.517 99.9476 376.411 99.9476 374.233 99.9476C373.361 99.9476 373.289 99.8025 373.87 99.0049C378.081 92.1883 382.292 85.3718 386.576 78.6278C390.788 71.8838 395.144 65.2123 399.428 58.5408C399.864 57.8881 400.372 57.598 401.171 57.598C402.986 57.6706 404.801 57.598 406.617 57.598C406.907 57.598 407.27 57.5255 407.343 57.8156C407.415 58.0331 407.198 58.2507 407.052 58.4682C402.333 65.2848 397.54 72.0288 392.821 78.8453C392.676 79.0629 392.458 79.2804 392.458 79.643C393.692 78.2652 394.854 76.9599 396.088 75.7271C401.824 69.6357 407.996 64.1245 414.822 59.2659C415.039 59.1209 415.33 58.9758 415.475 58.7583C416.056 57.598 417.073 57.453 418.234 57.5255C419.977 57.598 421.792 57.453 423.535 57.7431C423.753 57.7431 424.043 57.6706 424.116 57.9606C424.188 58.1782 423.97 58.3232 423.753 58.5408C422.591 59.701 421.357 60.7888 420.413 62.1666C418.888 64.2695 418.089 66.5901 418.452 69.2006C418.96 72.899 421.429 74.6394 425.06 73.7692C427.601 73.189 429.707 72.0288 431.304 69.7808C433.918 65.9374 436.75 62.2391 439.436 58.4682C439.8 57.9606 440.235 57.7431 440.816 57.7431C442.849 57.7431 444.81 57.7431 446.843 57.7431C447.133 57.7431 447.496 57.598 447.641 57.8881C447.787 58.1782 447.496 58.3957 447.278 58.6133C443.212 64.052 439.146 69.4907 435.152 74.9294C431.812 79.4255 428.4 83.9215 425.641 88.7801C424.769 90.3754 423.898 91.9708 423.535 93.7112C423.027 96.6118 424.914 98.4972 427.819 97.9896C430.433 97.5545 432.684 96.1767 434.789 94.6539C438.928 91.6807 442.486 88.0549 445.971 84.3566C451.708 78.1927 456.209 71.1586 460.711 64.052C461.873 62.1666 463.107 60.2811 464.269 58.3957C464.56 57.8881 464.923 57.6706 465.503 57.6706C467.682 57.6706 469.86 57.6706 472.038 57.6706C472.256 57.6706 472.619 57.598 472.765 57.8156C472.91 58.1057 472.619 58.3232 472.474 58.5408C468.844 63.6169 465.14 68.693 461.51 73.7692C458.242 78.3377 455.048 82.9788 452.361 87.9824C451.417 89.7228 450.618 91.6082 450.183 93.5661C450.038 94.2913 450.038 95.0165 450.11 95.7416C450.255 97.2645 451.49 98.3522 453.015 98.3522C454.467 98.4247 455.774 97.9896 457.081 97.337C460.058 95.9592 462.672 93.9287 465.14 91.7532C473.2 84.5016 480.026 76.1622 486.415 67.3877C486.56 67.1702 486.706 66.8076 486.996 66.8076C487.359 66.7351 487.795 66.8076 488.013 67.0977C488.23 67.3877 487.94 67.6053 487.722 67.8228C481.768 76.0897 475.524 84.0665 468.117 91.1006C464.995 94.0737 461.655 96.8294 457.662 98.6423C456.064 99.3674 454.467 99.9476 452.724 99.9476C448.803 100.02 446.044 97.5545 445.536 93.6386C445.245 91.1006 445.826 88.7075 446.697 86.387C446.843 85.9519 447.061 85.5893 447.206 85.1542C447.206 85.0817 447.206 85.0817 447.133 85.0817Z" fill="#93013C"/>
<path d="M340.977 99.9474C334.515 100.02 329.142 98.4246 324.785 94.2912C321.155 90.8829 318.976 86.6044 317.887 81.7458C316.725 76.7422 317.306 71.8111 318.468 66.9525C320.429 58.8307 324.277 51.6516 329.142 44.9801C338.291 32.4348 349.69 22.4275 363.269 14.8858C368.932 11.7676 374.959 9.30205 381.421 8.28682C385.85 7.56166 390.207 7.63417 394.418 9.15702C399.138 10.8974 401.679 14.7408 401.825 19.7444C402.042 26.6334 398.92 31.8546 393.547 35.843C388.464 39.6139 382.655 41.2817 376.338 41.0642C374.886 40.9917 373.507 40.7741 372.127 40.2665C367.988 38.8162 365.592 35.553 365.519 30.9844C365.519 29.9692 365.519 29.0265 365.592 28.0113C365.592 27.2136 366.173 27.2136 366.754 27.2861C367.407 27.3586 367.335 27.7937 367.262 28.2288C367.044 29.6791 367.117 31.1295 367.407 32.5798C368.206 36.4231 370.893 38.3086 374.45 39.1063C378.734 40.049 382.728 39.0337 386.359 36.7132C391.877 33.2324 395.507 28.3738 396.96 21.9199C397.395 20.0345 397.395 18.149 397.177 16.2636C396.669 12.5653 394.418 10.3898 390.497 9.80966C385.56 9.01198 380.84 9.95469 376.193 11.6226C368.642 14.3057 361.962 18.5841 355.79 23.5878C348.674 29.3166 342.502 35.9881 337.347 43.5297C332.046 51.3615 327.98 59.7009 326.237 69.0555C325.148 74.8568 324.858 80.6581 326.673 86.4594C327.617 89.4326 328.997 92.1157 331.175 94.3637C334.37 97.6269 338.363 98.7147 342.792 98.2071C351.723 97.2643 358.404 92.4783 363.849 85.5892C367.625 80.8031 370.166 75.3644 371.038 69.3456C371.328 67.3876 371.473 65.3572 370.965 63.3992C370.021 59.3383 367.117 56.7277 363.051 56.1476C362.47 56.0751 361.889 56.0026 361.308 56.0026C360.582 55.93 360.219 55.3499 360.437 54.6247C360.509 54.4072 360.655 54.3347 360.8 54.3347C364.721 54.3347 368.642 54.7698 371.836 57.3078C374.16 59.1208 375.177 61.7313 375.612 64.5595C376.556 70.7959 374.814 76.3796 371.691 81.6733C366.173 91.1005 358.041 97.1918 347.222 99.2948C344.971 99.8024 342.792 100.02 340.977 99.9474Z" fill="#93013C"/>
<path d="M484.963 91.4631C484.963 90.3028 484.963 89.2151 484.963 88.0548C484.963 87.5472 485.181 87.2571 485.689 87.3296C486.851 87.3296 488.013 87.3296 489.175 87.3296C490.699 87.4021 491.498 87.9823 491.716 89.2151C491.934 90.3753 491.498 91.173 490.191 91.8256C489.755 92.0432 489.901 92.1882 490.119 92.4058C490.99 93.2035 491.426 94.2187 492.079 95.1614C492.369 95.5965 492.224 95.7415 491.716 95.7415C491.135 95.7415 490.772 95.669 490.482 95.0889C490.046 94.3637 489.538 93.6386 489.029 92.9134C488.449 91.9707 487.505 92.0432 486.633 92.1157C486.27 92.1157 486.198 92.4058 486.198 92.7684C486.198 93.421 486.198 94.1462 486.198 94.7988C486.198 95.2339 486.27 95.7415 485.544 95.7415C484.818 95.7415 484.963 95.2339 484.891 94.7988C484.963 93.6385 484.963 92.5508 484.963 91.4631ZM488.013 88.4174C487.65 88.4174 487.287 88.4899 486.924 88.4174C486.415 88.4174 486.198 88.6349 486.198 89.1425C486.198 89.5776 486.198 90.0127 486.198 90.5204C486.198 90.8829 486.343 91.1005 486.779 91.1005C487.65 91.1005 488.594 91.173 489.465 90.9554C490.119 90.8104 490.482 90.3753 490.482 89.7227C490.482 89.07 490.046 88.7074 489.465 88.5624C488.957 88.4174 488.449 88.4174 488.013 88.4174Z" fill="#93013C"/>
</g>
<defs>
<clipPath id="clip0_273_1327">
<rect width="496" height="100" fill="white" transform="translate(0 0.237549)"/>
</clipPath>
</defs>
</svg>
