<svg width="142" height="29" viewBox="0 0 142 29" fill="none" xmlns="http://www.w3.org/2000/svg">
<g clip-path="url(#clip0_301_660)">
<path d="M101.561 28.5677V15.1904C101.561 12.4619 101.576 11.3894 100.992 9.97696C99.8818 7.48293 97.1696 5.81781 94.4429 5.81781C90.4346 5.81781 87.2734 9.03352 87.2734 13.2999V28.5677H82.0781V14.147C82.0781 10.4314 82.9798 7.89557 84.9557 5.38881C87.2189 2.56939 90.7927 0.884277 94.432 0.884277C98.6329 0.884277 102.847 3.24925 105.106 6.9085C106.144 8.59724 106.757 11.2622 106.757 14.407V28.5659H101.561V28.5677Z" fill="#CE2A36"/>
<path d="M127.912 28.6695C120.241 28.6695 113.761 22.4162 113.761 15.0141C113.761 7.03392 120.005 0.782471 127.976 0.782471C135.947 0.782471 142 7.08118 142 14.8214C142 22.5616 135.682 28.6677 127.912 28.6677V28.6695ZM127.974 5.83053C122.87 5.83053 119.021 9.72064 119.021 14.8814C119.021 19.5495 123.093 23.4942 127.912 23.4942C132.731 23.4942 136.803 19.5459 136.803 14.6942C136.803 9.84243 132.844 5.83053 127.976 5.83053H127.974Z" fill="#CE2A36"/>
<path d="M74.2832 0.762451H69.0879V28.6895H74.2832V0.762451Z" fill="#CE2A36"/>
<path d="M45.6904 28.6895L32.3477 0.762451H38.5809L47.2446 20.5384L56.21 0.762451H62.3579L48.977 28.6895H45.6904Z" fill="#CE2A36"/>
<path d="M28.196 16.083C28.2215 15.4341 28.2397 15.2632 28.2397 14.9178C28.2397 7.17578 21.9482 0.809814 14.2153 0.809814C6.48231 0.809814 0 7.0249 0 15.0051C0 22.4072 6.48049 28.6423 14.1516 28.6423C19.745 28.6423 24.5877 25.412 26.86 20.7585L21.8555 19.0224C20.3195 21.6637 17.4455 23.4506 14.1516 23.4506C9.76891 23.4506 6.01331 19.9786 5.36981 16.0812H28.1979L28.196 16.083ZM14.2153 5.78879C17.6964 5.78879 20.7067 7.63932 22.1409 10.8859H6.10966C7.51119 7.63932 10.5324 5.78879 14.2153 5.78879Z" fill="#CE2A36"/>
</g>
<defs>
<clipPath id="clip0_301_660">
<rect width="142" height="27.927" fill="white" transform="translate(0 0.762451)"/>
</clipPath>
</defs>
</svg>
